<svg id="visual" viewBox="0 0 960 540" width="960" height="540" xmlns="http://www.w3.org/2000/svg" xmlns:xlink="http://www.w3.org/1999/xlink" version="1.1"><rect x="0" y="0" width="960" height="540" fill="#001220"></rect><path d="M0 391L22.8 378C45.7 365 91.3 339 137 344.8C182.7 350.7 228.3 388.3 274 401.2C319.7 414 365.3 402 411.2 392.2C457 382.3 503 374.7 548.8 379.8C594.7 385 640.3 403 686 395.3C731.7 387.7 777.3 354.3 823 351.8C868.7 349.3 914.3 377.7 937.2 391.8L960 406L960 541L937.2 541C914.3 541 868.7 541 823 541C777.3 541 731.7 541 686 541C640.3 541 594.7 541 548.8 541C503 541 457 541 411.2 541C365.3 541 319.7 541 274 541C228.3 541 182.7 541 137 541C91.3 541 45.7 541 22.8 541L0 541Z" fill="#00ff46"></path><path d="M0 434L22.8 429.7C45.7 425.3 91.3 416.7 137 405.8C182.7 395 228.3 382 274 389.8C319.7 397.7 365.3 426.3 411.2 420.3C457 414.3 503 373.7 548.8 362.5C594.7 351.3 640.3 369.7 686 383.8C731.7 398 777.3 408 823 418C868.7 428 914.3 438 937.2 443L960 448L960 541L937.2 541C914.3 541 868.7 541 823 541C777.3 541 731.7 541 686 541C640.3 541 594.7 541 548.8 541C503 541 457 541 411.2 541C365.3 541 319.7 541 274 541C228.3 541 182.7 541 137 541C91.3 541 45.7 541 22.8 541L0 541Z" fill="#00f359"></path><path d="M0 358L22.8 364.8C45.7 371.7 91.3 385.3 137 402.7C182.7 420 228.3 441 274 445.3C319.7 449.7 365.3 437.3 411.2 428.5C457 419.7 503 414.3 548.8 416.7C594.7 419 640.3 429 686 434.5C731.7 440 777.3 441 823 432C868.7 423 914.3 404 937.2 394.5L960 385L960 541L937.2 541C914.3 541 868.7 541 823 541C777.3 541 731.7 541 686 541C640.3 541 594.7 541 548.8 541C503 541 457 541 411.2 541C365.3 541 319.7 541 274 541C228.3 541 182.7 541 137 541C91.3 541 45.7 541 22.8 541L0 541Z" fill="#00e768"></path><path d="M0 435L22.8 432.5C45.7 430 91.3 425 137 430.2C182.7 435.3 228.3 450.7 274 448.2C319.7 445.7 365.3 425.3 411.2 415.8C457 406.3 503 407.7 548.8 404.3C594.7 401 640.3 393 686 397C731.7 401 777.3 417 823 433C868.7 449 914.3 465 937.2 473L960 481L960 541L937.2 541C914.3 541 868.7 541 823 541C777.3 541 731.7 541 686 541C640.3 541 594.7 541 548.8 541C503 541 457 541 411.2 541C365.3 541 319.7 541 274 541C228.3 541 182.7 541 137 541C91.3 541 45.7 541 22.8 541L0 541Z" fill="#00db73"></path><path d="M0 480L22.8 478.7C45.7 477.3 91.3 474.7 137 463.5C182.7 452.3 228.3 432.7 274 425.5C319.7 418.3 365.3 423.7 411.2 436.5C457 449.3 503 469.7 548.8 479.5C594.7 489.3 640.3 488.7 686 489.2C731.7 489.7 777.3 491.3 823 479.7C868.7 468 914.3 443 937.2 430.5L960 418L960 541L937.2 541C914.3 541 868.7 541 823 541C777.3 541 731.7 541 686 541C640.3 541 594.7 541 548.8 541C503 541 457 541 411.2 541C365.3 541 319.7 541 274 541C228.3 541 182.7 541 137 541C91.3 541 45.7 541 22.8 541L0 541Z" fill="#00cf7b"></path><path d="M0 470L22.8 467C45.7 464 91.3 458 137 463C182.7 468 228.3 484 274 484.2C319.7 484.3 365.3 468.7 411.2 463.5C457 458.3 503 463.7 548.8 464C594.7 464.3 640.3 459.7 686 463.2C731.7 466.7 777.3 478.3 823 479.5C868.7 480.7 914.3 471.3 937.2 466.7L960 462L960 541L937.2 541C914.3 541 868.7 541 823 541C777.3 541 731.7 541 686 541C640.3 541 594.7 541 548.8 541C503 541 457 541 411.2 541C365.3 541 319.7 541 274 541C228.3 541 182.7 541 137 541C91.3 541 45.7 541 22.8 541L0 541Z" fill="#00c280"></path><path d="M0 490L22.8 492.7C45.7 495.3 91.3 500.7 137 503.8C182.7 507 228.3 508 274 504.7C319.7 501.3 365.3 493.7 411.2 486.5C457 479.3 503 472.7 548.8 477.3C594.7 482 640.3 498 686 505.3C731.7 512.7 777.3 511.3 823 507C868.7 502.7 914.3 495.3 937.2 491.7L960 488L960 541L937.2 541C914.3 541 868.7 541 823 541C777.3 541 731.7 541 686 541C640.3 541 594.7 541 548.8 541C503 541 457 541 411.2 541C365.3 541 319.7 541 274 541C228.3 541 182.7 541 137 541C91.3 541 45.7 541 22.8 541L0 541Z" fill="#00b583"></path><path d="M0 523L22.8 519C45.7 515 91.3 507 137 507.3C182.7 507.7 228.3 516.3 274 514.8C319.7 513.3 365.3 501.7 411.2 501C457 500.3 503 510.7 548.8 515.5C594.7 520.3 640.3 519.7 686 514.7C731.7 509.7 777.3 500.3 823 497.5C868.7 494.7 914.3 498.3 937.2 500.2L960 502L960 541L937.2 541C914.3 541 868.7 541 823 541C777.3 541 731.7 541 686 541C640.3 541 594.7 541 548.8 541C503 541 457 541 411.2 541C365.3 541 319.7 541 274 541C228.3 541 182.7 541 137 541C91.3 541 45.7 541 22.8 541L0 541Z" fill="#00a884"></path></svg>